<?xml version="1.0" encoding="UTF-8"?>
<svg id="Calque_1" data-name="Calque 1" xmlns="http://www.w3.org/2000/svg" xmlns:xlink="http://www.w3.org/1999/xlink" version="1.1" viewBox="0 0 74.5 60.1">
  <defs>
    <style>
      .cls-1 {
        fill: url(#Dégradé_sans_nom);
      }

      .cls-1, .cls-2, .cls-3 {
        mix-blend-mode: multiply;
      }

      .cls-1, .cls-2, .cls-3, .cls-4, .cls-5, .cls-6 {
        isolation: isolate;
      }

      .cls-1, .cls-2, .cls-3, .cls-7, .cls-5, .cls-8, .cls-6 {
        stroke-width: 0px;
      }

      .cls-2 {
        fill: url(#Dégradé_sans_nom_3);
      }

      .cls-3 {
        fill: url(#Dégradé_sans_nom_2);
      }

      .cls-7 {
        fill: #382716;
      }

      .cls-5 {
        fill: #e4c7a1;
        opacity: .8;
      }

      .cls-8, .cls-6 {
        fill: #fff;
      }

      .cls-6 {
        opacity: .3;
      }
    </style>
    <linearGradient id="Dégradé_sans_nom" data-name="Dégradé sans nom" x1="63.7" y1="732.4" x2="-.2" y2="745.2" gradientTransform="translate(0 -702.6)" gradientUnits="userSpaceOnUse">
      <stop offset="0" stop-color="#fff" stop-opacity="0"/>
      <stop offset="1" stop-color="#e4c7a1"/>
    </linearGradient>
    <linearGradient id="Dégradé_sans_nom_2" data-name="Dégradé sans nom 2" x1="31.2" y1="724.3" x2="29.4" y2="761.9" gradientTransform="translate(0 -702.6)" gradientUnits="userSpaceOnUse">
      <stop offset="0" stop-color="#fff" stop-opacity="0"/>
      <stop offset="1" stop-color="#e4c7a1"/>
    </linearGradient>
    <linearGradient id="Dégradé_sans_nom_3" data-name="Dégradé sans nom 3" x1="133.4" y1="650.1" x2="18.3" y2="748.8" gradientTransform="translate(0 -702.6)" gradientUnits="userSpaceOnUse">
      <stop offset="0" stop-color="#fff" stop-opacity="0"/>
      <stop offset="1" stop-color="#e4c7a1"/>
    </linearGradient>
  </defs>
  <g class="cls-4">
    <g id="Calque_2" data-name="Calque 2">
      <g id="OBJECTS">
        <path class="cls-6" d="M0,11.2l62.7,1.2s-1.4,24.9-5,47.7H6.1S1.8,41.3,0,11.3h0Z"/>
        <path class="cls-8" d="M0,11.2c1.8,30,6.1,48.9,6.1,48.9h51.5c3.6-22.9,5-47.7,5-47.7L0,11.2ZM54.9,57.4H8.8S5,40.6,3.3,13.7l56.1,1s-1.3,22.2-4.5,42.6h0Z"/>
        <path class="cls-8" d="M61.8,23.7h-.4c-.2,2.1-.4,4.4-.6,6.9h1c3.2,0,5.8,2.6,5.8,5.8s-2.6,5.8-5.8,5.8-1.5,0-2.2-.4c-.3,2.2-.5,4.5-.8,6.9,1,.2,2,.4,3,.4,7,0,12.6-5.7,12.6-12.6s-5.7-12.6-12.6-12.6h0v-.2Z"/>
        <path class="cls-7" d="M23.3,19.7c-10.4.4-15.2-.9-16.9-1.7,1.6,20.9,4.5,37.3,4.5,37.3h41.7c2.1-13.3,3.3-30.9,3.8-37.8-12.6-2.8-20.4,1.7-33.1,2.1h0Z"/>
        <path class="cls-1" d="M23.3,19.7c-10.4.4-15.2-.9-16.9-1.7,1.6,20.9,4.5,37.3,4.5,37.3h41.7c2.1-13.3,3.3-30.9,3.8-37.8-12.6-2.8-20.4,1.7-33.1,2.1h0Z"/>
        <path class="cls-3" d="M23.3,19.7c-10.4.4-15.2-.9-16.9-1.7,1.6,20.9,4.5,37.3,4.5,37.3h41.7c2.1-13.3,3.3-30.9,3.8-37.8-12.6-2.8-20.4,1.7-33.1,2.1h0Z"/>
        <path class="cls-2" d="M45.7,52.5c-17.1,0-31-14.5-31-28s.2-3.3.6-4.9c-5.1-.3-7.8-1.1-9-1.6,1.6,20.9,4.5,37.3,4.5,37.3h41.7c.2-1.2.4-2.4.5-3.6-2.4.5-4.8.7-7.4.7h.1Z"/>
        <path class="cls-5" d="M23.4,24.6c12.5-.5,20.3-4.9,32.6-2.2.2-1.8.3-3.5.4-4.8-12.6-2.8-20.4,1.7-33.1,2.1-10.4.4-15.2-.9-16.9-1.7,0,1.7.3,3.4.4,5,2,.7,6.7,1.9,16.6,1.6Z"/>
        <path class="cls-6" d="M20.5,18.3l-11.7-.2c1.3,21.6,4.4,35.2,4.4,35.2h8.2c-.8-18.3-.9-34.9-.9-34.9h0Z"/>
      </g>
    </g>
  </g>
</svg>