<?xml version="1.0" encoding="UTF-8"?>
<svg xmlns="http://www.w3.org/2000/svg" xmlns:xlink="http://www.w3.org/1999/xlink" version="1.1" viewBox="0 0 212.5 173">
  <defs>
    <style>
      .cls-1 {
        fill: #c19361;
      }

      .cls-1, .cls-2, .cls-3, .cls-4, .cls-5, .cls-6, .cls-7, .cls-8, .cls-9, .cls-10, .cls-11, .cls-12 {
        stroke-width: 0px;
      }

      .cls-2 {
        fill: #e0d3c3;
        opacity: .7;
      }

      .cls-2, .cls-3, .cls-6, .cls-7, .cls-8, .cls-13, .cls-12 {
        isolation: isolate;
      }

      .cls-3 {
        fill: #ebd4bd;
      }

      .cls-3, .cls-6, .cls-7, .cls-8 {
        mix-blend-mode: multiply;
      }

      .cls-4 {
        fill: #a17743;
      }

      .cls-5 {
        fill: #483e34;
      }

      .cls-6 {
        fill: url(#Dégradé_sans_nom);
      }

      .cls-7 {
        fill: url(#Dégradé_sans_nom_3);
      }

      .cls-8 {
        fill: url(#Dégradé_sans_nom_2);
      }

      .cls-9 {
        filter: url(#drop-shadow-2);
      }

      .cls-9, .cls-10, .cls-12 {
        fill: #fff;
      }

      .cls-10 {
        filter: url(#drop-shadow-1);
      }

      .cls-11 {
        fill: #382716;
      }

      .cls-12 {
        opacity: .3;
      }
    </style>
    <filter id="drop-shadow-1" filterUnits="userSpaceOnUse">
      <feOffset dx="2" dy="2"/>
      <feGaussianBlur result="blur" stdDeviation="1"/>
      <feFlood flood-color="#000" flood-opacity=".2"/>
      <feComposite in2="blur" operator="in"/>
      <feComposite in="SourceGraphic"/>
    </filter>
    <filter id="drop-shadow-2" filterUnits="userSpaceOnUse">
      <feOffset dx="2" dy="2"/>
      <feGaussianBlur result="blur-2" stdDeviation="1"/>
      <feFlood flood-color="#000" flood-opacity=".2"/>
      <feComposite in2="blur-2" operator="in"/>
      <feComposite in="SourceGraphic"/>
    </filter>
    <linearGradient id="Dégradé_sans_nom" data-name="Dégradé sans nom" x1="178.5" y1="87.8" x2="-.6" y2="51.8" gradientTransform="translate(0 176) scale(1 -1)" gradientUnits="userSpaceOnUse">
      <stop offset="0" stop-color="#fff" stop-opacity="0"/>
      <stop offset="1" stop-color="#e4c7a1"/>
    </linearGradient>
    <linearGradient id="Dégradé_sans_nom_2" data-name="Dégradé sans nom 2" x1="87.5" y1="110.7" x2="82.3" y2="5.4" gradientTransform="translate(0 176) scale(1 -1)" gradientUnits="userSpaceOnUse">
      <stop offset="0" stop-color="#fff" stop-opacity="0"/>
      <stop offset="1" stop-color="#e4c7a1"/>
    </linearGradient>
    <linearGradient id="Dégradé_sans_nom_3" data-name="Dégradé sans nom 3" x1="374" y1="318.5" x2="51.7" y2="41.9" gradientTransform="translate(0 176) scale(1 -1)" gradientUnits="userSpaceOnUse">
      <stop offset="0" stop-color="#fff" stop-opacity="0"/>
      <stop offset="1" stop-color="#e4c7a1"/>
    </linearGradient>
  </defs>
  <g class="cls-13">
    <g id="Calque_1" data-name="Calque 1">
      <g id="OBJECTS">
        <path class="cls-5" d="M32.8,11.9c0,2.8-2.3,5.1-5.1,5.1s-5.1-2.3-5.1-5.1,2.3-5.1,5.1-5.1,5.1,2.3,5.1,5.1Z"/>
        <path class="cls-5" d="M125.3,24c0,1.3-1,2.3-2.3,2.3s-2.3-1-2.3-2.3,1.1-2.3,2.3-2.3,2.3,1,2.3,2.3Z"/>
        <path class="cls-5" d="M83.3,5.8c0,3.2-2.6,5.8-5.8,5.8s-5.8-2.6-5.8-5.8,2.6-5.8,5.8-5.8,5.8,2.6,5.8,5.8Z"/>
        <path class="cls-12" d="M0,36l175.7,3.3s-4,69.7-14.2,133.6l-144.5.2S5.1,120.2,0,36Z"/>
        <path class="cls-4" d="M17.9,57S6.2,10.3,45,3.3c38.7-7,60.7,23.8,60.7,23.8,0,0,56.1-21,52.3,26.9-3.8,47.8-137.8,7.7-137.8,7.7"/>
        <path class="cls-1" d="M105.7,27.1S83.7-3.7,45,3.3c-16.9,3.1-24.2,13.7-27.1,24.7,3.6-10.7,11.5-20.8,28.5-22.8,39.1-4.6,59.1,27.5,59.1,27.5,0,0,55.8-17,50.8,28.2.9-2.1,1.5-4.4,1.7-6.9,3.8-47.8-52.3-26.9-52.3-26.9h0Z"/>
        <path class="cls-3" d="M158.1,51.1c-27.1-11.8-69.8,3.5-93.1,4.2-25.2.7-43.8-20.7-27-40.6,16.8-20,52.5-1.4,52.5-1.4h0C80.3,6,64.9-.3,45,3.3,6.2,10.3,17.9,57,17.9,57l2.3,4.7s134,40.2,137.8-7.7c0-1,.1-2,.1-2.9h0Z"/>
        <path class="cls-3" d="M158.1,51.1c-27.1-11.8-69.8,3.5-93.1,4.2-25.2.7-43.8-20.7-27-40.6,16.8-20,52.5-1.4,52.5-1.4h0C80.3,6,64.9-.3,45,3.3,6.2,10.3,17.9,57,17.9,57l2.3,4.7s134,40.2,137.8-7.7c0-1,.1-2,.1-2.9h0Z"/>
        <path class="cls-10" d="M0,36c5.1,84.2,17.1,137,17.1,137l144.5-.2c10.2-63.9,14.2-133.6,14.2-133.6L0,36ZM153.8,165.6l-129.2.2s-10.7-47.2-15.3-122.6l157.2,2.9s-3.6,62.3-12.7,119.5h0Z"/>
        <path class="cls-9" d="M173.3,71.2c-.4,0-.7,0-1.1,0-.5,5.9-1.1,12.3-1.7,19.3.9-.2,1.8-.2,2.8-.2,9,0,16.3,7.3,16.3,16.3s-7.3,16.3-16.3,16.3-4.1-.4-6-1.2c-.7,6.3-1.5,12.7-2.3,19.2,2.7.6,5.5,1,8.3,1,19.6,0,35.4-15.8,35.4-35.4s-15.9-35.4-35.4-35.4h0Z"/>
        <path class="cls-11" d="M65.3,59.9c-29.2,1.1-42.5-2.7-47.4-4.7,4.5,58.7,12.7,104.6,12.7,104.6h116.7c5.9-37.3,9.2-86.6,10.6-105.9-35.2-8-57.1,4.7-92.7,6h0Z"/>
        <path class="cls-6" d="M65.3,59.9c-29.2,1.1-42.5-2.7-47.4-4.7,4.5,58.7,12.7,104.6,12.7,104.6h116.7c5.9-37.3,9.2-86.6,10.6-105.9-35.2-8-57.1,4.7-92.7,6h0Z"/>
        <path class="cls-8" d="M65.3,59.9c-29.2,1.1-42.5-2.7-47.4-4.7,4.5,58.7,12.7,104.6,12.7,104.6h116.7c5.9-37.3,9.2-86.6,10.6-105.9-35.2-8-57.1,4.7-92.7,6h0Z"/>
        <path class="cls-2" d="M65.7,81.3c35-1.3,56.7-13.5,90.8-6.4.6-8.6,1.2-15.8,1.5-21-35.2-8-57.1,4.7-92.7,6-29.2,1.1-42.5-2.7-47.4-4.7.6,7.5,1.2,14.9,1.9,21.9,5.9,2,19.3,5.1,45.8,4.1h0Z"/>
        <path class="cls-7" d="M128.1,151.8c-47.9,0-86.8-40.5-86.8-78.4s.6-9.2,1.7-13.6c-14.2-.9-21.7-3.1-25.1-4.5,4.5,58.7,12.7,104.6,12.7,104.6h116.7c.5-3.4,1-6.8,1.5-10.1-6.6,1.3-13.6,2-20.8,2h0Z"/>
        <path class="cls-12" d="M57.4,55.8l-32.7-.6c3.6,60.5,12.3,98.5,12.3,98.5h22.9c-2.1-51.3-2.4-97.9-2.4-97.9Z"/>
        <path class="cls-5" d="M74.4,22.6c0,3-2.4,5.4-5.4,5.4s-5.4-2.4-5.4-5.4,2.4-5.4,5.4-5.4,5.4,2.4,5.4,5.4Z"/>
        <path class="cls-5" d="M58,14.9c0,1.4-1.2,2.6-2.6,2.6s-2.6-1.1-2.6-2.6,1.2-2.6,2.6-2.6,2.6,1.1,2.6,2.6Z"/>
        <path class="cls-5" d="M149.6,25.5c0,2.5-2,4.4-4.4,4.4s-4.4-2-4.4-4.4,2-4.4,4.4-4.4,4.4,2,4.4,4.4Z"/>
        <path class="cls-5" d="M89.6,18c0,1.3-1.1,2.3-2.3,2.3s-2.3-1-2.3-2.3,1.1-2.3,2.3-2.3,2.3,1,2.3,2.3Z"/>
      </g>
    </g>
  </g>
</svg>