<?xml version="1.0" encoding="UTF-8"?>
<svg id="Calque_1" data-name="Calque 1" xmlns="http://www.w3.org/2000/svg" xmlns:xlink="http://www.w3.org/1999/xlink" version="1.1" viewBox="0 0 74.5 60.1">
  <defs>
    <style>
      .cls-1 {
        fill: #966d31;
      }

      .cls-1, .cls-2, .cls-3, .cls-4, .cls-5, .cls-6, .cls-7, .cls-8, .cls-9, .cls-10, .cls-11 {
        stroke-width: 0px;
      }

      .cls-2 {
        fill: #c8a889;
        opacity: .5;
      }

      .cls-2, .cls-4, .cls-6, .cls-7, .cls-8 {
        mix-blend-mode: multiply;
      }

      .cls-2, .cls-4, .cls-6, .cls-7, .cls-8, .cls-12, .cls-11 {
        isolation: isolate;
      }

      .cls-3 {
        fill: #f3d9b8;
      }

      .cls-4 {
        fill: url(#Dégradé_sans_nom);
      }

      .cls-5 {
        fill: #875b2c;
      }

      .cls-6 {
        fill: url(#Dégradé_sans_nom_3);
      }

      .cls-7 {
        fill: url(#Dégradé_sans_nom_2);
      }

      .cls-8 {
        fill: url(#Dégradé_sans_nom_4);
      }

      .cls-9 {
        fill: #ab7c34;
      }

      .cls-10, .cls-11 {
        fill: #fff;
      }

      .cls-11 {
        opacity: .3;
      }
    </style>
    <linearGradient id="Dégradé_sans_nom" data-name="Dégradé sans nom" x1="66.6" y1="30.5" x2=".9" y2="23.2" gradientTransform="translate(0 62) scale(1 -1)" gradientUnits="userSpaceOnUse">
      <stop offset="0" stop-color="#fff" stop-opacity="0"/>
      <stop offset="1" stop-color="#e4c7a1"/>
    </linearGradient>
    <linearGradient id="Dégradé_sans_nom_2" data-name="Dégradé sans nom 2" x1="30.2" y1="30.9" x2="23.4" y2="-1.8" gradientTransform="translate(0 62) scale(1 -1)" gradientUnits="userSpaceOnUse">
      <stop offset="0" stop-color="#fff" stop-opacity="0"/>
      <stop offset="1" stop-color="#e4c7a1"/>
    </linearGradient>
    <linearGradient id="Dégradé_sans_nom_3" data-name="Dégradé sans nom 3" x1="74.9" y1="34.9" x2="2.8" y2="59.2" gradientTransform="translate(0 62) scale(1 -1)" gradientUnits="userSpaceOnUse">
      <stop offset="0" stop-color="#fff" stop-opacity="0"/>
      <stop offset="1" stop-color="#e4c7a1"/>
    </linearGradient>
    <linearGradient id="Dégradé_sans_nom_4" data-name="Dégradé sans nom 4" x1="97" y1="91.7" x2="6.4" y2="4.3" gradientTransform="translate(0 62) scale(1 -1)" gradientUnits="userSpaceOnUse">
      <stop offset="0" stop-color="#fff" stop-opacity="0"/>
      <stop offset="1" stop-color="#e4c7a1"/>
    </linearGradient>
  </defs>
  <g class="cls-12">
    <g id="Calque_2" data-name="Calque 2">
      <g id="OBJECTS">
        <path class="cls-9" d="M10,8.3c0,.8-.6,1.4-1.4,1.4s-1.4-.6-1.4-1.4.6-1.4,1.4-1.4,1.4.6,1.4,1.4Z"/>
        <path class="cls-9" d="M55.1,9.4c0,.8-.6,1.4-1.4,1.4s-1.4-.6-1.4-1.4.6-1.4,1.4-1.4,1.4.6,1.4,1.4Z"/>
        <path class="cls-9" d="M22.6,3.6c0,.8-.6,1.4-1.4,1.4s-1.4-.6-1.4-1.4.6-1.4,1.4-1.4,1.4.6,1.4,1.4Z"/>
        <path class="cls-11" d="M0,11.2l62.7,1.2s-1.4,24.9-5,47.7H6.1c0,0-4.3-18.8-6.1-48.8Z"/>
        <path class="cls-1" d="M5.5,15.5l51.7,1s-1.2,20.5-4.2,39.3H10.5s-3.5-15.5-5-40.3Z"/>
        <path class="cls-4" d="M5.5,15.5l51.7,1s-1.2,20.5-4.2,39.3H10.5s-3.5-15.5-5-40.3Z"/>
        <path class="cls-7" d="M5.5,15.5l51.7,1s-1.2,20.5-4.2,39.3H10.5s-3.5-15.5-5-40.3Z"/>
        <path class="cls-10" d="M61.8,23.8h-.4c-.2,2.1-.4,4.4-.6,6.9.3,0,.7,0,1,0,3.2,0,5.8,2.6,5.8,5.8s-2.6,5.8-5.8,5.8-1.5-.2-2.2-.4c-.3,2.2-.5,4.5-.8,6.9,1,.2,2,.4,3,.4,7,0,12.6-5.7,12.6-12.6s-5.7-12.6-12.6-12.6Z"/>
        <path class="cls-3" d="M5.5,15.5S-.2,4.7,32.1,4.7s25.1,11.8,25.1,11.8l-51.7-1h0Z"/>
        <path class="cls-6" d="M5.5,15.5S-.2,4.7,32.1,4.7s25.1,11.8,25.1,11.8l-51.7-1h0Z"/>
        <path class="cls-8" d="M44.3,53.2c-17.2,0-31.1-11.8-31.1-26.4s1-7.7,2.9-11.1l-10.6-.2c1.5,24.8,5,40.3,5,40.3h42.5c.2-1.3.4-2.5.6-3.8-2.9.8-6,1.2-9.3,1.2Z"/>
        <path class="cls-11" d="M20.5,18.3l-11.7-.2c1.3,21.6,4.4,35.2,4.4,35.2h8.2c-.8-18.3-.9-34.9-.9-34.9Z"/>
        <path class="cls-9" d="M20,4.3s-5.4.3-6.6,1.8,5,0,6.5.6,1.1,2.5,3.6,2.4c2.5-.1,1.2-2.8,3.2-2.8s3.2,1.3,5,1.3,2.1-1.4,4.6-1.3c2.5.1,1.2,3.8,3.4,3.9,2.2.1,1.8-4.4,4.9-3.8s4.6,1.9,6.1,1.4c1.5-.4-1.1-3.5-7.6-4.6s-7.6,0-9.6,0-2.9-1.8-5-1.5c-2.1.3-3.4,2.1-8.4,2.6h0Z"/>
        <path class="cls-5" d="M50.6,7.1c-1.5.4-2.9-.9-6.1-1.4-3.2-.6-2.8,3.9-4.9,3.8-2.2-.1-.9-3.8-3.4-3.9s-2.8,1.3-4.6,1.3-2.9-1.2-5-1.3-.8,2.6-3.2,2.8-2.1-1.9-3.6-2.4c-1.2-.4-5.4.4-6.4,0,0,0,0,0,0,0-1.2,1.4,5,0,6.5.6s1.1,2.5,3.6,2.4c2.5-.1,1.2-2.8,3.2-2.8s3.2,1.3,5,1.3,2.1-1.4,4.6-1.3c2.5.1,1.2,3.8,3.4,3.9,2.2.1,1.8-4.4,4.9-3.8s4.6,1.9,6.1,1.4c.4-.1.5-.4.3-.8,0,0-.2.2-.3.2Z"/>
        <path class="cls-9" d="M24.5,1.8c0,.3-.2.6-.6.6s-.6-.2-.6-.6.2-.6.6-.6.6.2.6.6Z"/>
        <path class="cls-9" d="M24.7,11.1c0,.9-.7,1.6-1.6,1.6s-1.6-.7-1.6-1.6.7-1.6,1.6-1.6,1.6.7,1.6,1.6Z"/>
        <path class="cls-9" d="M27.3,9.8c0,.5-.4.9-.9.9s-.9-.4-.9-.9.4-.9.9-.9.9.4.9.9Z"/>
        <path class="cls-9" d="M39.1,2.3c0,1.2-1,2.2-2.2,2.2s-2.2-1-2.2-2.2,1-2.2,2.2-2.2,2.2,1,2.2,2.2Z"/>
        <circle class="cls-9" cx="44.7" cy="4" r=".9"/>
        <circle class="cls-9" cx="45.1" cy="9.3" r="1.2"/>
        <path class="cls-2" d="M6.4,27.4c2.8-.6,8.4-1.4,15.9-.9,9,.6,23.5,3.9,33.9,3.2.7-7.8,1-13.1,1-13.1l-51.7-1c.3,4.2.6,8.2.9,11.9Z"/>
        <path class="cls-10" d="M0,11.2c1.8,30,6.1,48.9,6.1,48.9h51.5c3.6-22.9,5-47.7,5-47.7L0,11.2ZM54.9,57.5H8.8c0,0-3.8-16.8-5.5-43.7l56.1,1s-1.3,22.2-4.5,42.6h0Z"/>
      </g>
    </g>
  </g>
</svg>