<?xml version="1.0" encoding="UTF-8"?>
<svg id="Calque_1" data-name="Calque 1" xmlns="http://www.w3.org/2000/svg" xmlns:xlink="http://www.w3.org/1999/xlink" version="1.1" viewBox="0 0 26.4 26.2">
  <defs>
    <style>
      .cls-1 {
        fill: #f2e8df;
        filter: url(#drop-shadow-1);
        stroke-width: 0px;
      }
    </style>
    <filter id="drop-shadow-1" filterUnits="userSpaceOnUse">
      <feOffset dx="2" dy="2"/>
      <feGaussianBlur result="blur" stdDeviation="1"/>
      <feFlood flood-color="#000" flood-opacity=".2"/>
      <feComposite in2="blur" operator="in"/>
      <feComposite in="SourceGraphic"/>
    </filter>
  </defs>
  <path class="cls-1" d="M7.1,21.2c-.6,0-1-.2-1.4-.6s-.6-.9-.6-1.4.2-1,.6-1.4.9-.6,1.4-.6,1,.2,1.4.6.6.9.6,1.4-.2,1-.6,1.4-.9.6-1.4.6ZM17.1,21.2c-.6,0-1-.2-1.4-.6s-.6-.9-.6-1.4.2-1,.6-1.4c.4-.4.9-.6,1.4-.6s1,.2,1.4.6.6.9.6,1.4-.2,1-.6,1.4-.9.6-1.4.6ZM6.3,5.2l2.4,5h7l2.8-5H6.3ZM5.3,3.2h14.8c.4,0,.7.2.9.5s.2.7,0,1l-3.6,6.4c-.2.3-.4.6-.7.8s-.6.3-1,.3h-7.5l-1.1,2h12v2H7.1c-.8,0-1.3-.3-1.7-1s-.4-1.3,0-2l1.4-2.5L3.1,3.2H1.1V1.2h3.3l1,2h-.1ZM8.7,10.2h7-7Z"/>
</svg>