<?xml version="1.0" encoding="UTF-8"?>
<svg id="Calque_1" data-name="Calque 1" xmlns="http://www.w3.org/2000/svg" xmlns:xlink="http://www.w3.org/1999/xlink" version="1.1" viewBox="0 0 74.5 60.1">
  <defs>
    <style>
      .cls-1 {
        fill: #46331a;
      }

      .cls-1, .cls-2, .cls-3, .cls-4, .cls-5, .cls-6, .cls-7, .cls-8 {
        stroke-width: 0px;
      }

      .cls-2 {
        fill: url(#Dégradé_sans_nom);
      }

      .cls-2, .cls-3, .cls-4, .cls-9, .cls-5, .cls-6, .cls-8 {
        isolation: isolate;
      }

      .cls-2, .cls-3, .cls-4, .cls-5 {
        mix-blend-mode: multiply;
      }

      .cls-3 {
        fill: url(#Dégradé_sans_nom_3);
      }

      .cls-4 {
        fill: url(#Dégradé_sans_nom_2);
      }

      .cls-5, .cls-6 {
        fill: #e4c7a1;
      }

      .cls-6 {
        opacity: .8;
      }

      .cls-7, .cls-8 {
        fill: #fff;
      }

      .cls-8 {
        opacity: .3;
      }
    </style>
    <linearGradient id="Dégradé_sans_nom" data-name="Dégradé sans nom" x1="52.8" y1="758.2" x2="7.4" y2="762.6" gradientTransform="translate(0 -718)" gradientUnits="userSpaceOnUse">
      <stop offset="0" stop-color="#fff" stop-opacity="0"/>
      <stop offset="1" stop-color="#e4c7a1"/>
    </linearGradient>
    <linearGradient id="Dégradé_sans_nom_2" data-name="Dégradé sans nom 2" x1="31.1" y1="750.9" x2="27.7" y2="776.3" gradientTransform="translate(0 -718)" gradientUnits="userSpaceOnUse">
      <stop offset="0" stop-color="#fff" stop-opacity="0"/>
      <stop offset="1" stop-color="#e4c7a1"/>
    </linearGradient>
    <linearGradient id="Dégradé_sans_nom_3" data-name="Dégradé sans nom 3" x1="77.4" y1="712.2" x2="18.7" y2="771.7" gradientTransform="translate(0 -718)" gradientUnits="userSpaceOnUse">
      <stop offset="0" stop-color="#fff" stop-opacity="0"/>
      <stop offset="1" stop-color="#e4c7a1"/>
    </linearGradient>
  </defs>
  <g class="cls-9">
    <g id="Calque_2" data-name="Calque 2">
      <g id="OBJECTS">
        <path class="cls-8" d="M0,11.2l62.7,1.2s-1.4,24.9-5,47.7H6.1S1.8,41.3,0,11.3h0Z"/>
        <path class="cls-7" d="M0,11.2c1.8,30,6.1,48.9,6.1,48.9h51.5c3.6-22.9,5-47.7,5-47.7L0,11.2ZM54.9,57.5H8.8S5,40.7,3.3,13.8l56.1,1s-1.3,22.2-4.5,42.6h0Z"/>
        <path class="cls-7" d="M61.8,23.8h-.4c-.2,2.1-.4,4.4-.6,6.9h1c3.2,0,5.8,2.6,5.8,5.8s-2.6,5.8-5.8,5.8-1.5,0-2.2-.4c-.3,2.2-.5,4.5-.8,6.9,1,.2,2,.4,3,.4,7,0,12.6-5.7,12.6-12.6s-5.7-12.6-12.6-12.6h0v-.2Z"/>
        <path class="cls-1" d="M22.5,34.7c-8,.3-12.9-3-15-4.9,1.6,15.8,3.7,25.2,3.7,25.2h40.9c1.3-8.4,2.3-17.2,2.9-24.1-10.4-7.4-22.4,3.4-32.6,3.8h0Z"/>
        <path class="cls-2" d="M22.5,34.7c-8,.3-12.9-3-15-4.9,1.6,15.8,3.7,25.2,3.7,25.2h40.9c1.3-8.4,2.3-17.2,2.9-24.1-10.4-7.4-22.4,3.4-32.6,3.8h0Z"/>
        <path class="cls-4" d="M22.5,34.7c-8,.3-12.9-3-15-4.9,1.6,15.8,3.7,25.2,3.7,25.2h40.9c1.3-8.4,2.3-17.2,2.9-24.1-10.4-7.4-22.4,3.4-32.6,3.8h0Z"/>
        <path class="cls-5" d="M55.1,31.6c-10.4-7.3-22.3,3.4-32.5,3.8-7.9.3-12.7-2.9-14.9-4.8.2,2.1.4,4.2.7,6.1,3.7,1.4,9,2.6,14.2,2.5,9.1-.3,22.2-9,32.3-5.6,0-.7,0-1.3.2-2h0Z"/>
        <path class="cls-6" d="M22.5,38.4c9.1-.3,22.3-9,32.4-5.5,0-.7,0-1.3.2-2-10.4-7.4-22.4,3.4-32.6,3.8-8,.3-12.9-3-15-4.9.2,2.2.4,4.2.7,6.1,3.7,1.4,9,2.7,14.3,2.5Z"/>
        <path class="cls-8" d="M20.5,18.3l-11.7-.2c1.3,21.6,4.4,35.2,4.4,35.2h8.2c-.8-18.3-.9-34.9-.9-34.9h0Z"/>
        <path class="cls-3" d="M39.7,52.8c-11.3,0-20.8-7.9-24-18.8-4.1-1-6.8-2.9-8.2-4.2,1.6,15.8,3.7,25.2,3.7,25.2h40.9c.3-2.2.7-4.3.9-6.4-3.9,2.6-8.5,4.2-13.4,4.2h0Z"/>
      </g>
    </g>
  </g>
</svg>