<?xml version="1.0" encoding="UTF-8"?><svg xmlns="http://www.w3.org/2000/svg" xmlns:xlink="http://www.w3.org/1999/xlink" viewBox="0 0 74.48 60.12"><defs><style>.cls-1{fill:#f5efe6;}.cls-1,.cls-2,.cls-3,.cls-4,.cls-5,.cls-6,.cls-7,.cls-8,.cls-9,.cls-10{stroke-width:0px;}.cls-2{fill:url(#linear-gradient-2);}.cls-2,.cls-3,.cls-7{mix-blend-mode:multiply;}.cls-3{fill:url(#linear-gradient-3);}.cls-4{fill:#966d31;}.cls-5{fill:#ebd4bd;}.cls-6,.cls-9,.cls-10{fill:#fff;}.cls-6,.cls-11{opacity:.7;}.cls-7{fill:url(#linear-gradient);}.cls-8{fill:#f6f3ef;}.cls-8,.cls-12{opacity:.5;}.cls-9{opacity:.3;}.cls-13{opacity:.2;}.cls-14{opacity:.4;}.cls-15{isolation:isolate;}</style><linearGradient id="linear-gradient" x1="66.57" y1="31.48" x2=".93" y2="38.81" gradientUnits="userSpaceOnUse"><stop offset="0" stop-color="#fff" stop-opacity="0"/><stop offset="1" stop-color="#e4c7a1"/></linearGradient><linearGradient id="linear-gradient-2" x1="30.21" y1="31.14" x2="23.38" y2="63.79" xlink:href="#linear-gradient"/><linearGradient id="linear-gradient-3" x1="96.99" y1="-29.71" x2="6.36" y2="57.75" xlink:href="#linear-gradient"/></defs><g class="cls-15"><g id="Calque_2"><g id="OBJECTS"><path class="cls-9" d="M0,11.23l62.69,1.17s-1.42,24.87-5.05,47.66l-51.55.06S1.81,41.28,0,11.23Z"/><path class="cls-1" d="M5.5,15.52S2.83,6.22,10.49,5.22c0,0,2.17-5.83,11-5.16,8.83.66,14.49,7.33,14.49,7.33,0,0,.33-3.33,2.5-3.33s7.33,4.33,7.33,4.33c0,0,7.66-4.83,10.16-1.33,2.5,3.5.67,12.83.67,12.83"/><path class="cls-5" d="M24.48,16.54c-9.66-1.42-12.66-9.66-6.33-13.66,6.17-3.9,15.27,2.18,15.72,2.48C31.47,3.35,27.12.48,21.48.05c-8.83-.67-11,5.16-11,5.16-7.66,1-4.99,10.3-4.99,10.3l20.74,1.77c.26-.26-.23-.52-1.76-.74Z"/><path class="cls-4" d="M5.5,15.52l51.69.96s-1.17,20.51-4.17,39.31l-42.51.05s-3.53-15.54-5.02-40.32Z"/><path class="cls-7" d="M5.5,15.52l51.69.96s-1.17,20.51-4.17,39.31l-42.51.05s-3.53-15.54-5.02-40.32Z"/><path class="cls-2" d="M5.5,15.52l51.69.96s-1.17,20.51-4.17,39.31l-42.51.05s-3.53-15.54-5.02-40.32Z"/><path class="cls-10" d="M0,11.23c1.81,30.05,6.09,48.89,6.09,48.89l51.55-.06c3.63-22.8,5.05-47.66,5.05-47.66L0,11.23ZM54.87,57.49l-46.12.06S4.93,40.69,3.3,13.81l56.08,1.04s-1.27,22.25-4.52,42.64Z"/><path class="cls-10" d="M61.85,23.79c-.13,0-.25,0-.38,0-.17,2.09-.38,4.4-.61,6.88.32-.05.65-.09.99-.09,3.22,0,5.83,2.61,5.83,5.83s-2.61,5.83-5.83,5.83c-.76,0-1.48-.15-2.15-.41-.26,2.24-.53,4.54-.83,6.86.95.23,1.95.36,2.98.36,6.97,0,12.63-5.65,12.63-12.63s-5.65-12.63-12.63-12.63Z"/><path class="cls-6" d="M5.11,13.84l52.37.97c.01-.71-.11-1.58-.53-2.53l-51.2-.95c-.53.92-.66,1.8-.64,2.5Z"/><path class="cls-3" d="M44.32,53.26c-17.2,0-31.14-11.83-31.14-26.44,0-3.97,1.04-7.73,2.88-11.11l-10.57-.2c1.5,24.78,5.02,40.32,5.02,40.32l42.51-.05c.2-1.23.38-2.48.57-3.72-2.93.77-6.04,1.19-9.27,1.19Z"/><path class="cls-9" d="M20.47,18.32l-11.67-.22c1.3,21.61,4.38,35.16,4.38,35.16h8.16c-.75-18.32-.87-34.94-.87-34.94Z"/><g class="cls-12"><path class="cls-8" d="M28.4,28.36c.16.55-.15,1.13-.7,1.29l-6.66,1.99c-.55.16-1.13-.15-1.29-.7l-2.96-7.64c-.16-.55.15-1.13.7-1.29l8.21-2.08c.55-.16,1.13.15,1.29.7l1.41,7.73Z"/><path class="cls-8" d="M25.7,19.93l-8.21,2.08c-.55.16-.86.74-.7,1.29l2.96,7.64c.16.55.74.86,1.29.7l6.66-1.99c.55-.16.86-.74.7-1.29l-1.41-7.73c-.16-.55-.74-.86-1.29-.7ZM26.99,27.67c.12.41-.11.83-.52.95l-4.92,1.47c-.41.12-.83-.11-.95-.52l-2.19-5.65c-.12-.41.11-.83.52-.95l6.07-1.53c.41-.12.83.11.95.52l1.04,5.71Z"/></g><g class="cls-11"><path class="cls-8" d="M45.05,48.3c-.15.55-.72.88-1.27.73l-6.71-1.83c-.55-.15-.88-.72-.73-1.27l1.53-8.05c.15-.55.72-.88,1.27-.73l8.06,2.58c.55.15.88.72.73,1.27l-2.89,7.31Z"/><path class="cls-8" d="M47.21,39.72l-8.06-2.58c-.55-.15-1.12.17-1.27.73l-1.53,8.05c-.15.55.17,1.12.73,1.27l6.71,1.83c.55.15,1.12-.17,1.27-.73l2.89-7.31c.15-.55-.17-1.12-.73-1.27ZM44.22,46.97c-.11.41-.53.65-.94.54l-4.96-1.35c-.41-.11-.65-.53-.54-.94l1.13-5.95c.11-.41.53-.65.94-.54l5.96,1.9c.41.11.65.53.54.94l-2.14,5.4Z"/></g><g class="cls-14"><path class="cls-8" d="M46.34,30.47c-.07.39-.44.66-.83.59l-4.76-.82c-.39-.07-.66-.44-.59-.83l.52-5.67c.07-.39.44-.66.83-.59l5.75,1.24c.39.07.66.44.59.83l-1.51,5.25Z"/><path class="cls-8" d="M47.26,24.38l-5.75-1.24c-.39-.07-.77.2-.83.59l-.52,5.67c-.07.39.2.77.59.83l4.76.82c.39.07.77-.2.83-.59l1.51-5.25c.07-.39-.2-.77-.59-.83ZM45.68,29.6c-.05.29-.32.49-.62.44l-3.52-.61c-.29-.05-.48-.33-.43-.61l.38-4.2c.05-.29.33-.48.62-.43l4.25.92c.29.05.48.33.43.62l-1.12,3.88Z"/></g><g class="cls-14"><path class="cls-8" d="M26.62,50.02c.02.58-.43,1.07-1.01,1.09l-7.02.28c-.58.02-1.07-.43-1.09-1.01l-.99-8.22c-.02-.58.43-1.07,1.01-1.09l8.56.02c.58-.02,1.07.43,1.09,1l-.55,7.92Z"/><path class="cls-8" d="M26.08,41.09l-8.56-.02c-.58.02-1.03.51-1.01,1.09l.99,8.22c.02.58.51,1.03,1.09,1.01l7.02-.28c.58-.02,1.03-.51,1.01-1.09l.55-7.92c-.02-.58-.51-1.03-1.09-1ZM25.42,48.99c.02.43-.31.79-.74.8l-5.19.21c-.43.02-.79-.32-.81-.74l-.73-6.08c-.02-.43.32-.79.74-.8h6.32c.43,0,.79.33.81.76l-.41,5.85Z"/></g><g class="cls-13"><path class="cls-8" d="M33.31,37.9c.14.28.02.63-.26.77l-3.44,1.7c-.28.14-.63.02-.77-.26l-2.32-3.89c-.14-.28-.02-.63.26-.77l4.28-1.89c.28-.14.63-.02.77.26l1.48,4.08Z"/><path class="cls-8" d="M31.06,33.56l-4.28,1.89c-.28.14-.4.48-.26.77l2.32,3.89c.14.28.48.4.77.26l3.44-1.7c.28-.14.4-.48.26-.77l-1.48-4.08c-.14-.29-.48-.4-.77-.26ZM32.48,37.65c.1.21.02.46-.19.57l-2.54,1.25c-.21.1-.46.02-.57-.19l-1.71-2.88c-.1-.21-.02-.46.19-.57l3.16-1.4c.21-.1.46-.02.57.19l1.09,3.01Z"/></g><g class="cls-13"><path class="cls-8" d="M17.1,36.35c.14.28.02.63-.26.77l-3.44,1.7c-.28.14-.63.02-.77-.26l-2.32-3.89c-.14-.28-.02-.63.26-.77l4.28-1.89c.28-.14.63-.02.77.26l1.48,4.08Z"/><path class="cls-8" d="M14.86,32.01l-4.28,1.89c-.28.14-.4.48-.26.77l2.32,3.89c.14.28.48.4.77.26l3.44-1.7c.28-.14.4-.48.26-.77l-1.48-4.08c-.14-.28-.48-.4-.77-.26ZM16.27,36.1c.1.21.02.46-.19.57l-2.54,1.25c-.21.1-.46.02-.57-.19l-1.71-2.88c-.1-.21-.02-.46.19-.57l3.16-1.39c.21-.1.46-.02.57.19l1.09,3.01Z"/></g></g></g></g></svg>