<?xml version="1.0" encoding="UTF-8"?>
<svg id="Calque_1" data-name="Calque 1" xmlns="http://www.w3.org/2000/svg" xmlns:xlink="http://www.w3.org/1999/xlink" version="1.1" viewBox="0 0 74.5 60.1">
  <defs>
    <style>
      .cls-1 {
        fill: #966d31;
      }

      .cls-1, .cls-2, .cls-3, .cls-4, .cls-5, .cls-6, .cls-7, .cls-8, .cls-9, .cls-10 {
        stroke-width: 0px;
      }

      .cls-2 {
        fill: #f3d9b8;
      }

      .cls-3 {
        fill: url(#Dégradé_sans_nom);
      }

      .cls-3, .cls-4, .cls-5, .cls-6, .cls-7, .cls-8, .cls-11, .cls-10 {
        isolation: isolate;
      }

      .cls-3, .cls-5, .cls-6, .cls-7, .cls-8 {
        mix-blend-mode: multiply;
      }

      .cls-4 {
        fill: #f3d6b4;
        mix-blend-mode: soft-light;
      }

      .cls-5 {
        fill: url(#Dégradé_sans_nom_3);
      }

      .cls-6 {
        fill: url(#Dégradé_sans_nom_2);
      }

      .cls-7 {
        fill: url(#Dégradé_sans_nom_4);
      }

      .cls-8 {
        fill: #c8a889;
      }

      .cls-9, .cls-10 {
        fill: #fff;
      }

      .cls-10 {
        opacity: .3;
      }
    </style>
    <linearGradient id="Dégradé_sans_nom" data-name="Dégradé sans nom" x1="66.6" y1="26.5" x2=".9" y2="19.2" gradientTransform="translate(0 58) scale(1 -1)" gradientUnits="userSpaceOnUse">
      <stop offset="0" stop-color="#fff" stop-opacity="0"/>
      <stop offset="1" stop-color="#e4c7a1"/>
    </linearGradient>
    <linearGradient id="Dégradé_sans_nom_2" data-name="Dégradé sans nom 2" x1="30.2" y1="26.9" x2="23.4" y2="-5.8" gradientTransform="translate(0 58) scale(1 -1)" gradientUnits="userSpaceOnUse">
      <stop offset="0" stop-color="#fff" stop-opacity="0"/>
      <stop offset="1" stop-color="#e4c7a1"/>
    </linearGradient>
    <linearGradient id="Dégradé_sans_nom_3" data-name="Dégradé sans nom 3" x1="74.9" y1="30.8" x2="2.8" y2="55.2" gradientTransform="translate(0 58) scale(1 -1)" gradientUnits="userSpaceOnUse">
      <stop offset="0" stop-color="#fff" stop-opacity="0"/>
      <stop offset="1" stop-color="#e4c7a1"/>
    </linearGradient>
    <linearGradient id="Dégradé_sans_nom_4" data-name="Dégradé sans nom 4" x1="97" y1="87.7" x2="6.4" y2=".3" gradientTransform="translate(0 58) scale(1 -1)" gradientUnits="userSpaceOnUse">
      <stop offset="0" stop-color="#fff" stop-opacity="0"/>
      <stop offset="1" stop-color="#e4c7a1"/>
    </linearGradient>
  </defs>
  <g class="cls-11">
    <g id="Calque_2" data-name="Calque 2">
      <g id="OBJECTS">
        <path class="cls-10" d="M0,11.2l62.7,1.2s-1.4,24.9-5,47.7H6.1c0,0-4.3-18.8-6.1-48.8Z"/>
        <path class="cls-1" d="M5.5,15.5l51.7,1s-1.2,20.5-4.2,39.3H10.5s-3.5-15.5-5-40.3Z"/>
        <path class="cls-3" d="M5.5,15.5l51.7,1s-1.2,20.5-4.2,39.3H10.5s-3.5-15.5-5-40.3Z"/>
        <path class="cls-6" d="M5.5,15.5l51.7,1s-1.2,20.5-4.2,39.3H10.5s-3.5-15.5-5-40.3Z"/>
        <path class="cls-9" d="M61.8,23.8c-.1,0-.2,0-.4,0-.2,2.1-.4,4.4-.6,6.9.3,0,.7,0,1,0,3.2,0,5.8,2.6,5.8,5.8s-2.6,5.8-5.8,5.8-1.5-.2-2.2-.4c-.2,2.2-.5,4.5-.8,6.9,1,.2,2,.4,3,.4,7,0,12.6-5.7,12.6-12.6s-5.7-12.6-12.6-12.6h0Z"/>
        <path class="cls-2" d="M5.5,15.5S-.2,4.7,32.1,4.7s25.1,11.8,25.1,11.8c0,0-51.7-1-51.7-1Z"/>
        <path class="cls-5" d="M5.5,15.5S-.2,4.7,32.1,4.7s25.1,11.8,25.1,11.8c0,0-51.7-1-51.7-1Z"/>
        <path class="cls-7" d="M44.3,53.3c-17.2,0-31.1-11.8-31.1-26.4s1-7.7,2.9-11.1l-10.6-.2c1.5,24.8,5,40.3,5,40.3h42.5c.2-1.3.4-2.5.6-3.8-2.9.8-6,1.2-9.3,1.2h0Z"/>
        <path class="cls-4" d="M57.2,16.5l-51.7-1c.3,4.7.7,9.1,1,13.2,2.1-.5,8.1-1.5,18.9.2,11.3,1.8,21,3.8,30.6,2.5.8-8.7,1.2-15,1.2-15h0Z"/>
        <path class="cls-8" d="M10.5,55.8h42.5c.4-2.8.8-5.5,1.2-8.2-7.7,4.1-19.1.2-30-2.9-8.3-2.3-13.3-.8-15.5.4,1.1,6.8,1.9,10.6,1.9,10.6h0Z"/>
        <path class="cls-10" d="M20.5,18.3l-11.7-.2c1.3,21.6,4.4,35.2,4.4,35.2h8.2c-.8-18.3-.9-34.9-.9-34.9Z"/>
        <path class="cls-9" d="M0,11.2c1.8,30,6.1,48.9,6.1,48.9h51.5c3.6-22.9,5-47.7,5-47.7L0,11.2ZM54.9,57.5H8.8c0,0-3.8-16.8-5.5-43.7l56.1,1s-1.3,22.3-4.5,42.6h0Z"/>
      </g>
    </g>
  </g>
</svg>