<?xml version="1.0" encoding="UTF-8"?>
<svg id="Calque_1" data-name="Calque 1" xmlns="http://www.w3.org/2000/svg" xmlns:xlink="http://www.w3.org/1999/xlink" version="1.1" viewBox="0 0 74.5 60.1">
  <defs>
    <style>
      .cls-1 {
        fill: #966d31;
      }

      .cls-1, .cls-2, .cls-3, .cls-4, .cls-5, .cls-6, .cls-7, .cls-8 {
        stroke-width: 0px;
      }

      .cls-2, .cls-6 {
        fill: #e4c7a1;
      }

      .cls-3 {
        fill: url(#Dégradé_sans_nom);
      }

      .cls-3, .cls-4, .cls-5, .cls-9, .cls-6, .cls-8 {
        isolation: isolate;
      }

      .cls-3, .cls-4, .cls-5, .cls-6 {
        mix-blend-mode: multiply;
      }

      .cls-4 {
        fill: url(#Dégradé_sans_nom_3);
      }

      .cls-5 {
        fill: url(#Dégradé_sans_nom_2);
      }

      .cls-7, .cls-8 {
        fill: #fff;
      }

      .cls-8 {
        opacity: .3;
      }
    </style>
    <linearGradient id="Dégradé_sans_nom" data-name="Dégradé sans nom" x1="53.8" y1="14.2" x2="6.6" y2="9.7" gradientTransform="translate(0 50) scale(1 -1)" gradientUnits="userSpaceOnUse">
      <stop offset="0" stop-color="#fff" stop-opacity="0"/>
      <stop offset="1" stop-color="#e4c7a1"/>
    </linearGradient>
    <linearGradient id="Dégradé_sans_nom_2" data-name="Dégradé sans nom 2" x1="30.9" y1="23.9" x2="26.6" y2="-8.4" gradientTransform="translate(0 50) scale(1 -1)" gradientUnits="userSpaceOnUse">
      <stop offset="0" stop-color="#fff" stop-opacity="0"/>
      <stop offset="1" stop-color="#e4c7a1"/>
    </linearGradient>
    <linearGradient id="Dégradé_sans_nom_3" data-name="Dégradé sans nom 3" x1="97.7" y1="69.5" x2="9.7" y2="-4.7" gradientTransform="translate(0 50) scale(1 -1)" gradientUnits="userSpaceOnUse">
      <stop offset="0" stop-color="#fff" stop-opacity="0"/>
      <stop offset="1" stop-color="#e4c7a1"/>
    </linearGradient>
  </defs>
  <g class="cls-9">
    <g id="Calque_2" data-name="Calque 2">
      <g id="OBJECTS">
        <path class="cls-8" d="M0,11.2l62.7,1.2s-1.4,24.9-5,47.7H6.1c0,0-4.3-18.8-6.1-48.8Z"/>
        <path class="cls-7" d="M0,11.2c1.8,30,6.1,48.9,6.1,48.9h51.5c3.6-22.9,5-47.7,5-47.7L0,11.2ZM54.9,57.5H8.8c0,0-3.8-16.8-5.5-43.7l56.1,1s-1.3,22.2-4.5,42.6h0Z"/>
        <path class="cls-7" d="M61.8,23.8h-.4c-.2,2.1-.4,4.4-.6,6.9.3,0,.7,0,1,0,3.2,0,5.8,2.6,5.8,5.8s-2.6,5.8-5.8,5.8-1.5-.1-2.1-.4c-.3,2.2-.5,4.5-.8,6.9,1,.2,2,.4,3,.4,7,0,12.6-5.7,12.6-12.6s-5.7-12.6-12.6-12.6Z"/>
        <path class="cls-1" d="M22.5,26.1c-8,.3-14-3-16.1-4.8,1.6,15.8,4.9,33.8,4.9,33.8h40.9c1.3-8.4,3.1-25.7,3.7-32.7-10.4-7.4-23.2,3.4-33.4,3.8h0Z"/>
        <path class="cls-3" d="M22.5,26.1c-8,.3-14-3-16.1-4.8,1.6,15.8,4.9,33.8,4.9,33.8h40.9c1.3-8.4,3.1-25.7,3.7-32.7-10.4-7.4-23.2,3.4-33.4,3.8h0Z"/>
        <path class="cls-5" d="M22.5,26.1c-8,.3-14-3-16.1-4.8,1.6,15.8,4.9,33.8,4.9,33.8h40.9c1.3-8.4,3.1-25.7,3.7-32.7-10.4-7.4-23.2,3.4-33.4,3.8h0Z"/>
        <path class="cls-6" d="M55.8,23.1c-10.4-7.3-23.1,3.4-33.3,3.8-7.9.3-13.9-2.9-16-4.8.2,2.1.5,4.2.7,6.1,3.7,1.4,10.2,2.6,15.4,2.5,9.1-.3,23-9,33.1-5.6,0-.7.1-1.3.2-2Z"/>
        <path class="cls-4" d="M46.9,53.2c-18.3,0-33.2-12.7-33.7-28.4-3.2-1.1-5.6-2.5-6.8-3.6,1.6,15.8,4.9,33.8,4.9,33.8h40.9c.1-.7.2-1.5.3-2.2-1.8.3-3.7.4-5.6.4h0Z"/>
        <path class="cls-2" d="M22.5,29.9c9.1-.3,23.1-9,33.2-5.5,0-.7.1-1.3.2-2-10.4-7.4-23.2,3.4-33.4,3.8-8,.3-14-3-16.1-4.9.2,2.2.4,4.2.7,6.1,3.7,1.4,10.2,2.7,15.5,2.5h0Z"/>
        <path class="cls-8" d="M20.5,18.3l-11.7-.2c1.3,21.6,4.4,35.2,4.4,35.2h8.2c-.8-18.3-.9-34.9-.9-34.9Z"/>
      </g>
    </g>
  </g>
</svg>