<?xml version="1.0" encoding="UTF-8"?><svg id="Calque_2" xmlns="http://www.w3.org/2000/svg" viewBox="0 0 1152.71 632.81"><defs><style>.cls-1{fill:#d9a789;}.cls-1,.cls-2{stroke-width:0px;}.cls-2,.cls-3{fill:#fff;}.cls-3{font-family:Poppins-Bold, Poppins;font-size:150px;font-weight:700;}</style></defs><g id="Layer_1"><path class="cls-2" d="M334.25,467.78c-9.95-16.61-21.19-33.58-33.63-50.41-6.31-8.36-12.74-16.8-19.61-25.05-3.32-4.22-7-8.17-10.53-12.27-3.45-4.18-7.21-8.11-10.89-12.14-3.63-4.08-7.51-7.95-11.38-11.84l-5.8-5.86-5.96-5.72-5.97-5.73c-2-1.87-4.02-3.59-6.03-5.4-4.08-3.59-7.84-7.1-12.53-10.85l-6.68-5.6-6.49-5.5c-4.73-4.1-9.55-8.05-14.16-12.27-4.51-4.36-8.97-8.75-13.33-13.21-4.13-4.72-8.24-9.42-12.34-14.1-3.78-4.97-7.55-9.93-11.29-14.85-3.37-5.23-6.74-10.4-9.97-15.61-2.93-5.41-5.99-10.7-8.7-16.11-1.25-2.76-2.5-5.51-3.75-8.25-1.21-2.75-2.52-5.44-3.48-8.28-8.79-22.19-13.55-44.88-15.25-66.27-1.69-21.43-.39-41.59,2.59-59.66,3.02-18.09,7.56-34.14,12.5-47.92,4.35-12.11,8.98-22.49,13.31-31.08-8.37,2.02-16.59,4.73-24.61,8.21C45.76,39.99,7.83,109.96,1.09,196.3c87.14,148.14,225.58,336.04,362.77,326.22-1.07-2.2-2.15-4.41-3.27-6.65-7.6-15.29-16.35-31.5-26.34-48.09Z"/><path class="cls-1" d="M1.09,196.3c-4.98,63.8,7.06,136.55,38.02,207.92,72.86,167.95,222.85,264.66,335.01,216,3.75-1.63,7.42-3.4,10.99-5.31,8.01-4.28,11.54-13.9,8.46-22.44-.02-.05-.04-.11-.06-.16-6.48-17.67-16.15-41.99-29.66-69.79C226.67,532.34,88.23,344.45,1.09,196.3Z"/><path class="cls-1" d="M389.52,518.34c3.39,12.45,6.02,24.14,8.03,34.86,2.66,14.24,4.28,26.74,5.19,37.06.46,4.82.72,9.14.89,12.97,41.44-30.54,67.73-82.03,77-143.89-29.74,32.23-60.31,51.02-91.11,59Z"/><path class="cls-2" d="M480.62,459.34c10.35-69.07-.54-151.06-35.36-231.33C388.36,96.84,284.41,9.14,188.18.2c-24.06-2.23-45.84,14.59-49.01,38.54-.02.15-.04.29-.06.44-1.8,13.72-3.09,29.2-3.02,45.86.05,16.65,1.59,34.5,5.32,52.65,3.7,18.16,9.73,36.6,18.4,54.36,2.07,4.48,4.78,8.71,7.04,13.15,2.51,4.34,5.33,8.53,7.97,12.85,2.99,4.11,5.99,8.24,9.01,12.39,3.27,3.97,6.57,7.97,9.87,11.98,3.58,3.8,7.17,7.61,10.77,11.44,3.87,3.6,7.76,7.2,11.57,10.89,3.97,3.54,8.18,6.88,12.25,10.36l13.62,11.2c4.39,3.51,9.11,7.96,13.7,12.09,2.29,2.1,4.65,4.18,6.86,6.29l6.5,6.38,6.48,6.37c2.11,2.17,4.11,4.43,6.17,6.64,4.1,4.43,8.19,8.83,12.01,13.44,7.89,9,15.23,18.34,22.12,27.8,6.92,9.44,13.45,18.97,19.4,28.63,12.04,19.23,22.14,38.68,30.55,57.54,8.38,18.89,15.03,37.21,20.24,54.35,1.28,4.24,2.47,8.4,3.58,12.48,30.8-7.98,61.37-26.77,91.11-59Z"/><text class="cls-3" transform="translate(480.86 244.6)"><tspan x="0" y="0">On vend </tspan><tspan x="66.3" y="180">du café</tspan></text></g></svg>