<?xml version="1.0" encoding="UTF-8"?><svg xmlns="http://www.w3.org/2000/svg" xmlns:xlink="http://www.w3.org/1999/xlink" viewBox="0 0 74.48 71.9"><defs><style>.cls-1{fill:#f5efe6;}.cls-1,.cls-2,.cls-3,.cls-4,.cls-5,.cls-6,.cls-7,.cls-8,.cls-9,.cls-10{stroke-width:0px;}.cls-2{fill:url(#linear-gradient-2);}.cls-2,.cls-3,.cls-7,.cls-8{mix-blend-mode:multiply;}.cls-3{fill:url(#linear-gradient-3);}.cls-4{fill:#966d31;}.cls-5{fill:#ebd4bd;}.cls-6{opacity:.7;}.cls-6,.cls-9,.cls-10{fill:#fff;}.cls-7{fill:url(#linear-gradient);}.cls-8{fill:#ccbca8;}.cls-9{opacity:.3;}.cls-11{isolation:isolate;}</style><linearGradient id="linear-gradient" x1="66.57" y1="43.26" x2=".93" y2="50.59" gradientUnits="userSpaceOnUse"><stop offset="0" stop-color="#fff" stop-opacity="0"/><stop offset="1" stop-color="#e4c7a1"/></linearGradient><linearGradient id="linear-gradient-2" x1="30.21" y1="42.92" x2="23.37" y2="75.57" xlink:href="#linear-gradient"/><linearGradient id="linear-gradient-3" x1="96.99" y1="-17.94" x2="6.36" y2="69.53" xlink:href="#linear-gradient"/></defs><g class="cls-11"><g id="Calque_2"><g id="OBJECTS"><path class="cls-9" d="M0,23.01l62.69,1.17s-1.42,24.87-5.05,47.66l-51.55.06S1.81,53.06,0,23.01Z"/><path class="cls-1" d="M5.5,27.29s-1.96-12.05,6.53-12.05c0,0-.87-8.75,7.87-9.5C19.9,5.75,21.9-.12,25.52,0c3.62.12,1.37,7.62,6.87,8.75,5.5,1.12,11.87-3.5,16.74-.12,4.87,3.38-1.12,11-1.12,11,0,0,4.75-1.12,7.5,1.75,2.75,2.88,1.25,10.5,1.25,10.5"/><path class="cls-5" d="M22.82,17.83c6.16-.25,13.58-2,13.58-2-20.49,1.75-22.32-2.83-20.08-5.58,2.25-2.75,8.58-1.75,8.58-1.75,0,0-2.25-4.5.33-4.91,2.58-.42,2.58,6,6.25,6s7.75-1.33,7.75-1.33v-.02c-2.31.51-4.64.97-6.83.52C26.9,7.62,29.15.13,25.52,0c-3.62-.13-5.62,5.75-5.62,5.75-8.75.75-7.87,9.5-7.87,9.5-8.5,0-6.53,12.05-6.53,12.05l7.4.66c-3.63-9.79,3.93-9.88,9.92-10.13Z"/><path class="cls-4" d="M5.5,27.29l51.7.96s-1.17,20.51-4.17,39.31l-42.51.05s-3.53-15.54-5.02-40.32Z"/><path class="cls-7" d="M5.5,27.29l51.7.96s-1.17,20.51-4.17,39.31l-42.51.05s-3.53-15.54-5.02-40.32Z"/><path class="cls-2" d="M5.5,27.29l51.7.96s-1.17,20.51-4.17,39.31l-42.51.05s-3.53-15.54-5.02-40.32Z"/><path class="cls-10" d="M0,23.01c1.81,30.05,6.09,48.89,6.09,48.89l51.55-.06c3.63-22.8,5.05-47.66,5.05-47.66L0,23.01ZM54.87,69.27l-46.12.06s-3.82-16.86-5.45-43.74l56.08,1.04s-1.27,22.25-4.52,42.64Z"/><path class="cls-10" d="M61.85,35.57c-.13,0-.25,0-.38,0-.17,2.09-.38,4.4-.61,6.88.32-.05.65-.09.99-.09,3.22,0,5.83,2.61,5.83,5.83s-2.61,5.83-5.83,5.83c-.76,0-1.48-.15-2.14-.41-.26,2.24-.53,4.54-.83,6.86.96.23,1.95.36,2.97.36,6.98,0,12.63-5.65,12.63-12.63s-5.65-12.63-12.63-12.63Z"/><path class="cls-6" d="M5.11,25.62l52.37.97c0-.71-.11-1.58-.53-2.53l-51.2-.95c-.53.92-.66,1.8-.64,2.5Z"/><path class="cls-3" d="M44.32,65.03c-17.2,0-31.14-11.83-31.14-26.44,0-3.97,1.04-7.73,2.88-11.11l-10.57-.2c1.5,24.78,5.02,40.32,5.02,40.32l42.51-.05c.2-1.23.38-2.48.57-3.72-2.93.77-6.04,1.19-9.27,1.19Z"/><path class="cls-8" d="M56.87,33.01l-51.06-.96c.26,3.52.56,6.83.87,9.89,2.38,1.34,6.82,3.07,13.71,2.91,10.47-.24,23.38-8.18,36.01-6.05.19-2.23.34-4.19.46-5.8Z"/><path class="cls-9" d="M20.47,30.09l-11.67-.22c1.3,21.61,4.38,35.16,4.38,35.16h8.16c-.75-18.32-.87-34.94-.87-34.94Z"/><path class="cls-1" d="M6.2,36.78c2.24,1.36,6.81,3.37,14.2,3.2,10.58-.24,23.64-8.35,36.39-5.99.27-3.64.4-5.85.4-5.85l-51.7-.97c.2,3.38.44,6.59.71,9.61Z"/><path class="cls-5" d="M6.2,36.78c2.24,1.36,6.81,3.37,14.2,3.2,4.9-.11,10.32-1.91,16.01-3.57-20.01,4.6-23.75-9.09-23.75-9.09l-.04-.02-7.11-.13c.2,3.38.44,6.59.71,9.61Z"/></g></g></g></svg>